<svg width="20" height="20" viewBox="0 0 20 20" fill="none" xmlns="http://www.w3.org/2000/svg">
    <g clip-path="url(#clip0_2007_58)">
        <path d="M10 0C8.02219 0 6.08879 0.58649 4.4443 1.6853C2.79981 2.78412 1.51809 4.3459 0.761209 6.17316C0.00433286 8.00043 -0.193701 10.0111 0.192152 11.9509C0.578004 13.8907 1.53041 15.6725 2.92894 17.0711C4.32746 18.4696 6.10929 19.422 8.0491 19.8078C9.98891 20.1937 11.9996 19.9957 13.8268 19.2388C15.6541 18.4819 17.2159 17.2002 18.3147 15.5557C19.4135 13.9112 20 11.9778 20 10C19.9971 7.34871 18.9426 4.80684 17.0679 2.9321C15.1932 1.05736 12.6513 0.00286757 10 0ZM10 18.3333C8.35183 18.3333 6.74066 17.8446 5.37025 16.9289C3.99984 16.0132 2.93174 14.7117 2.30101 13.189C1.67028 11.6663 1.50525 9.99076 1.82679 8.37425C2.14834 6.75774 2.94201 5.27288 4.10745 4.10744C5.27289 2.94201 6.75774 2.14833 8.37425 1.82679C9.99076 1.50525 11.6663 1.67027 13.189 2.301C14.7118 2.93173 16.0132 3.99984 16.9289 5.37025C17.8446 6.74066 18.3333 8.35182 18.3333 10C18.3309 12.2094 17.4522 14.3276 15.8899 15.8899C14.3276 17.4522 12.2094 18.3309 10 18.3333Z" fill="black"/>
        <path d="M10.8333 9.65496V4.99996C10.8333 4.77895 10.7455 4.56698 10.5892 4.4107C10.4329 4.25442 10.221 4.16663 9.99996 4.16663C9.77895 4.16663 9.56698 4.25442 9.4107 4.4107C9.25442 4.56698 9.16663 4.77895 9.16663 4.99996V9.99996C9.16667 10.221 9.2545 10.4329 9.41079 10.5891L11.9108 13.0891C12.068 13.2409 12.2785 13.3249 12.497 13.323C12.7155 13.3211 12.9245 13.2335 13.079 13.079C13.2335 12.9245 13.3211 12.7155 13.323 12.497C13.3249 12.2785 13.2409 12.068 13.0891 11.9108L10.8333 9.65496Z" fill="black"/>
    </g>
</svg>
