<svg fill="none" xmlns="http://www.w3.org/2000/svg" viewBox="2.5 5 17 10">
    <path d="M8.16667 14.2857C8.16667 14.0963 8.24129 13.9146 8.37413 13.7806C8.50697 13.6467 8.68714 13.5714 8.875 13.5714H13.125C13.3129 13.5714 13.493 13.6467 13.6259 13.7806C13.7587 13.9146 13.8333 14.0963 13.8333 14.2857C13.8333 14.4752 13.7587 14.6568 13.6259 14.7908C13.493 14.9247 13.3129 15 13.125 15H8.875C8.68714 15 8.50697 14.9247 8.37413 14.7908C8.24129 14.6568 8.16667 14.4752 8.16667 14.2857ZM5.33333 10C5.33333 9.81056 5.40796 9.62888 5.5408 9.49492C5.67364 9.36097 5.8538 9.28571 6.04167 9.28571H15.9583C16.1462 9.28571 16.3264 9.36097 16.4592 9.49492C16.592 9.62888 16.6667 9.81056 16.6667 10C16.6667 10.1894 16.592 10.3711 16.4592 10.5051C16.3264 10.639 16.1462 10.7143 15.9583 10.7143H6.04167C5.8538 10.7143 5.67364 10.639 5.5408 10.5051C5.40796 10.3711 5.33333 10.1894 5.33333 10ZM2.5 5.71429C2.5 5.52485 2.57463 5.34316 2.70747 5.20921C2.8403 5.07526 3.02047 5 3.20833 5H18.7917C18.9795 5 19.1597 5.07526 19.2925 5.20921C19.4254 5.34316 19.5 5.52485 19.5 5.71429C19.5 5.90373 19.4254 6.08541 19.2925 6.21936C19.1597 6.35332 18.9795 6.42857 18.7917 6.42857H3.20833C3.02047 6.42857 2.8403 6.35332 2.70747 6.21936C2.57463 6.08541 2.5 5.90373 2.5 5.71429Z"
          fill="black"/>
</svg>
