<svg fill="none" xmlns="http://www.w3.org/2000/svg" viewBox="1.33 0.82 13.81 13.82">
    <g>
        <path d="M12 6.16662C12.0021 4.9612 11.5958 3.79062 10.8473 2.84574C10.0988 1.90086 9.05227 1.23741 7.87837 0.963559C6.70446 0.689705 5.47241 0.821601 4.38308 1.33774C3.29374 1.85388 2.41139 2.72382 1.87986 3.80573C1.34834 4.88764 1.199 6.1177 1.45619 7.29537C1.71338 8.47304 2.36194 9.52884 3.29612 10.2907C4.23029 11.0525 5.39499 11.4754 6.60032 11.4904C7.80565 11.5054 8.98052 11.1116 9.93337 10.3733L14.2 14.6399L15.14 13.7L10.8734 9.43328C11.601 8.4996 11.9974 7.35037 12 6.16662ZM6.66671 10.1666C5.87558 10.1666 5.10222 9.93202 4.44442 9.4925C3.78663 9.05297 3.27394 8.42826 2.97119 7.69735C2.66844 6.96645 2.58922 6.16218 2.74356 5.38626C2.89791 4.61033 3.27887 3.8976 3.83828 3.33819C4.39769 2.77878 5.11042 2.39782 5.88634 2.24348C6.66227 2.08914 7.46654 2.16835 8.19744 2.4711C8.92834 2.77385 9.55306 3.28654 9.99258 3.94434C10.4321 4.60213 10.6667 5.37549 10.6667 6.16662C10.6667 7.22748 10.2453 8.2449 9.49513 8.99504C8.74499 9.74519 7.72757 10.1666 6.66671 10.1666Z"
              fill="black"/>
    </g>
</svg>
