<svg id="Layer_3" style="enable-background:new 0 0 32 32;" version="1.1" xml:space="preserve" xmlns="http://www.w3.org/2000/svg" xmlns:xlink="http://www.w3.org/1999/xlink" viewBox="1 1 30 30"><g><path d="M16,1C7.729,1,1,7.729,1,16s6.729,15,15,15s15-6.729,15-15S24.271,1,16,1z M28.38922,12.06915   c-1.52167-1.00854-3.63904-1.80164-6.16138-2.297c-0.49536-2.52234-1.28845-4.63971-2.297-6.16138   C23.94208,4.88641,27.11359,8.05792,28.38922,12.06915z M16,29c-1.5426,0-3.20239-2.46478-4.1109-6.44147   C13.18835,22.71484,14.56091,22.8042,16,22.8042s2.81165-0.08936,4.1109-0.24567C19.20239,26.53522,17.5426,29,16,29z M16,20.8042   c-1.61108,0-3.11145-0.11713-4.48907-0.31512C11.31293,19.11145,11.1958,17.61108,11.1958,16s0.11713-3.11145,0.31512-4.48907   c1.37762-0.198,2.87799-0.31512,4.48907-0.31512s3.11145,0.11713,4.48907,0.31512c0.198,1.37762,0.31512,2.87799,0.31512,4.48907   s-0.11713,3.11145-0.31512,4.48907C19.11145,20.68707,17.61108,20.8042,16,20.8042z M9.44147,20.1109   C5.46478,19.20239,3,17.5426,3,16s2.46478-3.20239,6.44147-4.1109C9.28516,13.18835,9.1958,14.56091,9.1958,16   S9.28516,18.81165,9.44147,20.1109z M16,3c1.5426,0,3.20239,2.46478,4.1109,6.44147C18.81165,9.28516,17.43909,9.1958,16,9.1958   s-2.81165,0.08936-4.1109,0.24567C12.79761,5.46478,14.4574,3,16,3z M22.55853,11.8891C26.53522,12.79761,29,14.4574,29,16   s-2.46478,3.20239-6.44147,4.1109C22.71484,18.81165,22.8042,17.43909,22.8042,16S22.71484,13.18835,22.55853,11.8891z    M12.06915,3.61078c-1.00854,1.52167-1.80164,3.63904-2.297,6.16138c-2.52234,0.49536-4.63971,1.28845-6.16138,2.297   C4.88641,8.05792,8.05792,4.88641,12.06915,3.61078z M3.61078,19.93085c1.52167,1.00854,3.63904,1.80164,6.16138,2.297   c0.49536,2.52234,1.28845,4.63971,2.297,6.16138C8.05792,27.11359,4.88641,23.94208,3.61078,19.93085z M19.93085,28.38922   c1.00854-1.52167,1.80164-3.63904,2.297-6.16138c2.52234-0.49536,4.63971-1.28845,6.16138-2.297   C27.11359,23.94208,23.94208,27.11359,19.93085,28.38922z"></path></g></svg>